<?xml version="1.0" standalone="no"?>
<!DOCTYPE svg PUBLIC "-//W3C//DTD SVG 20010904//EN"
 "http://www.w3.org/TR/2001/REC-SVG-20010904/DTD/svg10.dtd">
<svg version="1.0" xmlns="http://www.w3.org/2000/svg"
 width="225.000000pt" height="225.000000pt" viewBox="0 0 225.000000 225.000000"
 preserveAspectRatio="xMidYMid meet">
<metadata>
Created by potrace 1.15, written by Peter Selinger 2001-2017
</metadata>
<g transform="translate(0.000000,225.000000) scale(0.100000,-0.100000)"
fill="#000000" stroke="none">
<path d="M1611 2023 l-242 -226 21 -22 c20 -21 20 -22 1 -39 -16 -14 -23 -15
-41 -6 -33 18 -79 4 -130 -39 -59 -50 -148 -107 -206 -132 -36 -15 -50 -17
-61 -8 -11 10 4 22 79 63 180 100 227 130 221 139 -8 14 -55 1 -203 -55 -124
-47 -141 -51 -213 -50 -89 2 -123 -10 -161 -60 -13 -18 -29 -52 -35 -75 -19
-70 -2 -110 97 -226 121 -141 152 -181 211 -266 l50 -74 -20 -28 c-11 -15 -71
-62 -134 -104 -123 -82 -158 -119 -204 -212 -30 -60 -121 -345 -121 -378 0 -9
15 -32 34 -51 40 -40 92 -46 143 -15 27 17 36 35 73 148 51 156 80 216 128
266 32 34 122 103 122 95 0 -2 -7 -35 -15 -73 -8 -39 -15 -93 -15 -122 0 -120
71 -382 120 -436 25 -28 34 -32 80 -32 46 0 55 4 81 33 34 38 36 59 9 138 -38
110 -70 252 -70 313 0 72 70 357 101 414 45 83 8 185 -141 382 -37 50 -55 81
-47 84 30 9 158 89 215 134 70 55 97 96 88 137 -3 20 1 33 14 45 19 17 21 17
39 1 12 -11 25 -15 33 -10 7 4 115 104 241 222 193 182 227 218 227 243 0 62
-45 109 -104 109 -18 0 -86 -58 -265 -227z"/>
<path d="M656 1978 c-22 -29 -29 -32 -75 -29 -88 4 -153 -43 -172 -127 -22
-99 61 -202 163 -202 45 0 115 36 135 71 10 16 23 29 29 29 7 0 22 12 34 28
18 22 21 36 17 77 -2 28 -9 63 -16 78 -11 27 -11 27 -42 12 -25 -13 -33 -14
-47 -3 -9 7 -19 13 -21 15 -1 1 9 17 23 36 22 28 24 36 12 40 -10 4 -25 -6
-40 -25z"/>
<path d="M311 1007 c-5 -13 -17 -27 -25 -30 -15 -6 -16 -49 -14 -414 l3 -408
30 0 30 0 3 404 c1 281 -1 408 -9 417 -8 10 2 14 53 16 48 2 63 7 63 18 0 11
-15 16 -63 18 -58 3 -63 1 -71 -21z"/>
<path d="M475 1020 c-13 -21 8 -30 67 -30 48 0 58 -3 50 -13 -13 -15 -22 -398
-9 -390 4 2 7 8 7 13 0 6 14 32 30 58 29 48 30 52 30 181 0 111 -3 133 -16
138 -8 3 -20 16 -25 29 -8 22 -15 24 -68 24 -33 0 -63 -4 -66 -10z"/>
<path d="M436 974 c-14 -13 -16 -64 -16 -408 0 -404 1 -416 40 -416 12 0 14 9
12 45 -2 25 3 66 12 92 24 69 24 664 0 687 -8 9 -19 16 -24 16 -5 0 -16 -7
-24 -16z"/>
</g>
</svg>
