<?xml version="1.0" standalone="no"?>
<!DOCTYPE svg PUBLIC "-//W3C//DTD SVG 20010904//EN"
 "http://www.w3.org/TR/2001/REC-SVG-20010904/DTD/svg10.dtd">
<svg version="1.0" xmlns="http://www.w3.org/2000/svg"
 width="512.000000pt" height="512.000000pt" viewBox="0 0 512.000000 512.000000"
 preserveAspectRatio="xMidYMid meet">
<metadata>
Created by potrace 1.15, written by Peter Selinger 2001-2017
</metadata>
<g transform="translate(0.000000,512.000000) scale(0.100000,-0.100000)"
fill="#000000" stroke="none">
<path d="M3140 5097 c-92 -31 -148 -67 -219 -139 -160 -161 -196 -403 -93
-616 36 -76 158 -198 234 -234 309 -150 667 6 762 331 20 67 21 217 2 286 -48
181 -200 333 -381 381 -81 22 -228 17 -305 -9z"/>
<path d="M2505 3993 c-57 -15 -291 -166 -799 -515 -110 -75 -662 -577 -697
-634 -27 -44 -37 -141 -18 -186 37 -93 109 -142 204 -141 39 0 74 7 97 19 20
11 162 135 317 277 261 241 296 269 500 408 158 107 218 143 212 127 -5 -13
-126 -301 -269 -640 -175 -414 -299 -692 -377 -845 -78 -154 -119 -246 -126
-283 -45 -257 266 -416 456 -232 22 21 49 57 59 80 11 23 22 42 26 42 4 0 101
135 216 299 115 164 210 298 212 296 2 -1 -36 -162 -83 -356 -85 -348 -89
-363 -271 -864 -206 -566 -212 -589 -175 -687 23 -59 88 -130 137 -148 14 -6
66 -10 115 -10 69 0 98 4 127 19 50 26 97 77 121 131 37 85 694 1905 722 2000
23 77 380 1124 404 1181 5 14 39 -1 199 -87 l192 -104 222 -343 c122 -189 234
-355 249 -369 106 -98 276 -75 341 47 24 44 31 133 16 178 -16 45 -493 783
-526 814 -40 37 -629 349 -732 387 -118 44 -319 97 -482 126 -163 30 -500 37
-589 13z"/>
<path d="M826 1054 c-89 -21 -174 -71 -248 -146 -162 -164 -201 -392 -102
-606 39 -86 147 -200 230 -244 146 -78 362 -78 508 0 83 44 191 158 230 244
99 214 60 442 -102 606 -76 76 -159 125 -253 147 -79 18 -185 18 -263 -1z"/>
</g>
</svg>
